<?xml version="1.0" encoding="utf-8"?>
<!-- Generator: Adobe Illustrator 16.0.3, SVG Export Plug-In . SVG Version: 6.00 Build 0)  -->
<!DOCTYPE svg PUBLIC "-//W3C//DTD SVG 1.1//EN" "http://www.w3.org/Graphics/SVG/1.1/DTD/svg11.dtd">
<svg version="1.1" id="Calque_1" xmlns="http://www.w3.org/2000/svg" xmlns:xlink="http://www.w3.org/1999/xlink" x="0px" y="0px"
	 width="595.28px" height="841.89px" viewBox="0 0 595.28 841.89" enable-background="new 0 0 595.28 841.89" xml:space="preserve">
<g>
	<path fill="#010101" d="M323.43,439.742l-12.544-12.545c-1.868,2.908-4.342,5.381-7.249,7.25l12.545,12.543
		c2.002,2.002,5.25,2.002,7.248,0C325.432,444.992,325.432,441.746,323.43,439.742z"/>
	<path fill="#010101" d="M311.262,414.32c0-11.322-9.181-20.504-20.503-20.504s-20.504,9.182-20.504,20.504
		s9.181,20.504,20.504,20.504S311.262,425.643,311.262,414.32z M290.758,429.697c-8.48,0-15.378-6.898-15.378-15.377
		c0-8.48,6.898-15.379,15.378-15.379s15.378,6.898,15.378,15.379C306.137,422.799,299.238,429.697,290.758,429.697z"/>
	<path fill="#010101" d="M278.798,414.32h3.417c0-4.711,3.833-8.543,8.543-8.543v-3.418
		C284.164,402.359,278.798,407.725,278.798,414.32z"/>
</g>
</svg>
